<svg xmlns="http://www.w3.org/2000/svg" width="1600" height="1000" viewBox="0 0 1600 1000">
  <rect width="1600" height="1000" fill="#fff7ed"/>
  <rect x="0" y="620" width="1600" height="380" fill="#d9f99d"/>
  <circle cx="220" cy="180" r="80" fill="#fdba74"/>
  <path d="M420 760h30l28-280h-86z" fill="#334155"/>
  <path d="M300 470c65-110 260-180 455-170 195 10 345 85 375 175z" fill="#fb923c"/>
  <path d="M760 470c40-100 170-170 350-170 190 0 330 70 360 170z" fill="#f97316" opacity="0.85"/>
  <rect x="1040" y="510" width="160" height="180" rx="14" fill="#1e293b" opacity="0.1"/>
  <rect x="1090" y="560" width="50" height="220" rx="8" fill="#475569"/>
  <path d="M970 560c35-70 120-110 195-110 75 0 160 40 195 110z" fill="#0f172a" opacity="0.9"/>
  <rect x="180" y="780" width="1240" height="70" rx="20" fill="#84cc16" opacity="0.65"/>
  <text x="110" y="940" font-family="Arial, Helvetica, sans-serif" font-size="42" font-weight="700" fill="#0f172a">O Du Dai Phat - hero demo thay bang anh that khi deploy</text>
</svg>
